<?xml version="1.0" encoding="utf-8"?>
<!-- Generator: Adobe Illustrator 15.0.0, SVG Export Plug-In . SVG Version: 6.00 Build 0)  -->
<!DOCTYPE svg PUBLIC "-//W3C//DTD SVG 1.1//EN" "http://www.w3.org/Graphics/SVG/1.1/DTD/svg11.dtd">
<svg version="1.1" id="Layer_1" xmlns="http://www.w3.org/2000/svg" xmlns:xlink="http://www.w3.org/1999/xlink" x="0px" y="0px"
	 width="106.155px" height="81.539px" viewBox="0 0 106.155 81.539" enable-background="new 0 0 106.155 81.539"
	 xml:space="preserve">
<g>
	<path fill="#FFFFFF" d="M89.086,57.944c-0.201,4.95,1.924,7.7,5.424,8.825c-3.5,1.125-9,1.125-11.463-3.585
		c-7.518,5.303-17.391,8.526-28.213,8.526c-23.546,0-42.634-15.233-42.634-34.024S31.289,3.663,54.834,3.663
		c23.545,0,42.634,15.233,42.634,34.024C97.468,45.277,94.351,52.285,89.086,57.944z"/>
</g>
<g>
	<circle fill="#0591BF" cx="68.167" cy="41.922" r="9.383"/>
	<g>
		<g>
			<path fill="#0591BF" d="M58.094,21.459l-0.244,7.799l11.686,19.468c0,0,9.012,12.961-19.022,12.686
				c-28.035-0.274-19.47-13.671-19.47-13.671L42.96,28.518v-7.058C33.264,11.788,68.055,11.196,58.094,21.459z"/>
			<path fill="#FFFFFF" stroke="#0591BF" stroke-miterlimit="10" d="M55.464,20.763l0.222,9.216l11.881,20.097
				c0,0,5.551,9.215-17.1,8.995C27.816,58.85,33.479,49.41,33.479,49.41l11.992-19.431l0.056-9.216"/>
			<ellipse fill="#FFFFFF" stroke="#0591BF" stroke-miterlimit="10" cx="50.578" cy="18.478" rx="7.188" ry="3.062"/>
			<ellipse fill="#FFFFFF" stroke="#0591BF" stroke-miterlimit="10" cx="50.467" cy="17.715" rx="4.705" ry="1.257"/>
			<polygon fill="#0591BF" points="44.328,33.376 33.95,51.861 67.463,52.775 56.828,33.376 			"/>
			<path fill="none" stroke="#1E1E1C" stroke-miterlimit="10" d="M43.805,18.764"/>
			<path fill="none" stroke="#1E1E1C" stroke-miterlimit="10" d="M53.909,15.655"/>
			<path fill="none" stroke="#1E1E1C" stroke-miterlimit="10" d="M47.469,15.655"/>
			
				<ellipse fill="#0591BF" stroke="#FFFFFF" stroke-width="0.5" stroke-miterlimit="10" cx="50.578" cy="52.775" rx="16.885" ry="5.269"/>
			
				<ellipse fill="#0591BF" stroke="#FFFFFF" stroke-width="0.5" stroke-miterlimit="10" cx="50.578" cy="33.376" rx="6.25" ry="1.67"/>
			<g>
				<path fill="none" d="M56.588,53.851l0.004-3.979l-2.772,0.024l0.003,3.954H56.588z M55.599,51.053c0,0.457,0,2.604,0,2.604
					h-0.813c0,0,0-2.123,0-2.604C54.786,50.571,55.599,50.597,55.599,51.053z"/>
				<path fill="none" d="M52.601,45.905h-2.773l-0.004,7.945h2.787L52.601,45.905z M50.807,53.656v-6.384
					c0-0.48,0.804-0.488,0.804,0c0,0.489,0.017,6.384,0.017,6.384H50.807z"/>
				<path fill="#FFFFFF" d="M50.807,47.272v6.384h0.82c0,0-0.017-5.895-0.017-6.384C51.61,46.784,50.807,46.792,50.807,47.272z"/>
				<path fill="#FFFFFF" d="M55.599,53.656c0,0,0-2.146,0-2.604c0-0.456-0.813-0.481-0.813,0c0,0.48,0,2.604,0,2.604H55.599z"/>
				<path fill="#FFFFFF" d="M45.267,42.138V53.56h1.02V42.138C46.287,41.845,45.267,41.857,45.267,42.138z"/>
				<path fill="#FFFFFF" d="M46.877,42.138V53.56h1.019V42.138C47.896,41.845,46.877,41.857,46.877,42.138z"/>
				<polygon fill="#FFFFFF" points="48.875,53.56 49.824,53.56 49.828,45.905 52.601,45.905 52.611,53.56 53.823,53.56 
					53.82,49.896 56.592,49.872 56.588,53.56 57.85,53.56 57.845,49.088 57.448,47.484 57.038,49.088 54.251,49.088 54.251,45.594 
					53.63,43.479 53.07,45.594 51.665,39.537 50.272,45.594 50.272,40.893 49.488,39.551 48.817,40.73 46.641,36.889 44.315,40.619 
					43.706,39.438 42.96,40.98 42.96,41.13 48.879,41.117 				"/>
			</g>
			<circle fill="#FFFFFF" cx="53.472" cy="37.401" r="0.962"/>
			<circle fill="#FFFFFF" cx="56.211" cy="38.364" r="0.616"/>
			<circle fill="#FFFFFF" cx="57.766" cy="40.242" r="0.341"/>
			<circle fill="#FFFFFF" cx="56.211" cy="44.433" r="0.381"/>
			<circle fill="#FFFFFF" cx="58.107" cy="44.051" r="0.474"/>
			<circle fill="#FFFFFF" cx="49.823" cy="33.376" r="0.754"/>
			<circle fill="#FFFFFF" cx="45.034" cy="35.993" r="0.446"/>
			<circle fill="#FFFFFF" cx="52.51" cy="33.034" r="0.343"/>
			<circle fill="#0591BF" cx="50.806" cy="28.222" r="0.592"/>
			<circle fill="#0591BF" cx="52.167" cy="25.039" r="0.343"/>
			<circle fill="#0591BF" cx="47.387" cy="23.262" r="1.2"/>
			<circle fill="#0591BF" cx="47.387" cy="28.222" r="0.592"/>
			<circle fill="#0591BF" cx="53.472" cy="29.184" r="0.37"/>
		</g>
	</g>
	<circle fill="#0591BF" cx="68.526" cy="24.588" r="2.665"/>
	<circle fill="#0591BF" cx="77.196" cy="26.444" r="6.019"/>
</g>
</svg>
